<?xml version="1.0" encoding="UTF-8"?>
<svg id="Capa_1" data-name="Capa 1" xmlns="http://www.w3.org/2000/svg" viewBox="0 0 6758.46 3442.03">
  <defs>
    <style>
      .cls-1 {
        fill: #fff;
      }

      .cls-2 {
        fill: #ff6100;
      }
    </style>
  </defs>
  <rect class="cls-2" x="2280" y="2354.35" width="1077.26" height="1077.26"/>
  <rect width="1077.26" height="1077.26"/>
  <rect y="1166.76" width="1077.26" height="1077.26"/>
  <rect y="2354.35" width="1077.26" height="1077.26"/>
  <rect class="cls-2" x="2280" width="1077.26" height="1077.26"/>
  <rect class="cls-2" x="2280" y="1166.76" width="1077.26" height="1077.26"/>
  <g>
    <g>
      <path d="M1446.08,595.89c0-30.21,19.03-50.3,47.51-50.3,23.02,0,40.19,13.44,43.51,34.33h-17.96c-3.33-11.31-13.04-17.96-25.95-17.96-17.96,0-29.27,13.04-29.27,33.8s11.44,33.93,29.27,33.93c13.18,0,23.29-6.92,26.48-17.7h17.7c-3.73,20.49-21.56,34.07-44.58,34.07-28.34,0-46.71-19.69-46.71-50.17Z"/>
      <path d="M1576.69,576.86c20.36,0,35.13,14.1,35.13,34.6s-14.77,34.6-35.13,34.6-35.13-14.11-35.13-34.6,14.77-34.6,35.13-34.6ZM1576.69,631.55c11.18,0,18.9-8.12,18.9-20.09s-7.72-20.09-18.9-20.09-18.9,8.12-18.9,20.09,7.72,20.09,18.9,20.09Z"/>
      <path d="M1661.86,593.49h-5.99c-11.71,0-19.03,6.26-19.03,19.03v31.94h-16.23v-65.6h15.3l.93,9.58c2.79-6.52,9.05-10.91,17.83-10.91,2.26,0,4.52.27,7.18.93v15.04Z"/>
      <path d="M1666.25,578.72h17.3l11.45,30.21c2.79,7.85,5.06,14.64,5.86,18.23.93-4.13,3.33-11.04,6.12-18.23l11.98-30.21h16.77l-27.41,65.74h-15.97l-26.08-65.74Z"/>
      <path d="M1738.39,625.7c0-12.11,8.78-19.69,24.35-20.89l19.69-1.46v-1.46c0-8.91-5.32-12.51-13.57-12.51-9.58,0-14.9,3.99-14.9,10.91h-13.84c0-14.24,11.71-23.55,29.54-23.55s28.61,9.58,28.61,27.81v39.92h-14.24l-1.2-9.71c-2.8,6.79-11.71,11.44-21.96,11.44-13.97,0-22.49-8.12-22.49-20.49ZM1782.57,617.85v-3.46l-13.71,1.06c-10.11.93-13.97,4.26-13.97,9.58,0,5.99,3.99,8.92,11.31,8.92,9.98,0,16.37-5.99,16.37-16.1Z"/>
      <path d="M1802.72,644.46v-65.74h15.04l1.33,8.52c4.13-6.65,12.11-10.51,21.03-10.51,16.5,0,25.02,10.25,25.02,27.28v40.45h-16.23v-36.59c0-11.04-5.45-16.37-13.84-16.37-9.98,0-16.1,6.92-16.1,17.56v35.4h-16.23Z"/>
      <path d="M1882.17,644.46v-52.16h-12.64v-13.57h12.64v-20.49h16.23v20.49h12.77v13.57h-12.77v52.16h-16.23Z"/>
    </g>
    <g>
      <polygon class="cls-2" points="1700.94 436.45 1700.94 481.06 1656.33 481.06 1656.33 436.45 1611.72 391.84 1611.72 481.06 1656.33 525.67 1700.94 525.67 1745.55 481.06 1745.55 391.84 1700.94 436.45"/>
      <rect class="cls-2" x="1656.33" y="391.84" width="44.61" height="44.61"/>
    </g>
    <g>
      <path d="M1560.74,674.66c0,6.16-4.15,10.25-10.37,10.25h-8.91v-20.45h9.54c5.84,0,9.74,4.07,9.74,10.2ZM1551.06,681.47c3.64,0,6.04-2.72,6.04-6.82s-2.69-6.76-6.73-6.76h-5.27v13.57h5.96Z"/>
      <path d="M1575.66,680.07h-8.88l-1.92,4.84h-3.84l7.27-20.45h5.84l7.27,20.45h-3.84l-1.92-4.84ZM1574.54,676.86l-3.04-8.99h-.57l-3.04,8.99h6.64Z"/>
      <path d="M1597,667.9h-6.42v17.01h-3.64v-17.01h-6.39v-3.44h16.44v3.44Z"/>
      <path d="M1611.34,680.07h-8.88l-1.92,4.84h-3.84l7.27-20.45h5.84l7.27,20.45h-3.84l-1.92-4.84ZM1610.23,676.86l-3.04-8.99h-.57l-3.04,8.99h6.64Z"/>
      <path d="M1645.42,671.02c0,4.12-2.61,6.56-7.04,6.56h-6.47v7.33h-3.64v-20.45h10.11c4.44,0,7.04,2.43,7.04,6.56ZM1638.38,674.14c2.15,0,3.41-1.15,3.41-3.12s-1.26-3.12-3.41-3.12h-6.47v6.24h6.47Z"/>
      <path d="M1664.04,679.53v5.38h-3.64v-5.04c0-1.46-1.35-2.43-3.35-2.43h-5.99v7.47h-3.64v-20.45h10.25c4.15,0,6.9,2.38,6.9,5.96,0,2.43-1.72,4.44-4.27,5.01v.57c2.23.49,3.72,1.89,3.72,3.52ZM1657.97,674c1.78,0,2.98-1.23,2.98-3.06s-1.32-3.04-3.26-3.04h-6.62v6.1h6.9Z"/>
      <path d="M1676.9,685.42c-6.36,0-10.6-4.27-10.6-10.65s4.24-10.57,10.6-10.57,10.57,4.24,10.57,10.57-4.24,10.65-10.57,10.65ZM1676.9,681.99c4.15,0,6.93-2.89,6.93-7.22s-2.78-7.13-6.93-7.13-6.96,2.86-6.96,7.13,2.78,7.22,6.96,7.22Z"/>
      <path d="M1705.34,667.9h-6.41v17.01h-3.64v-17.01h-6.39v-3.44h16.44v3.44Z"/>
      <path d="M1711.58,672.68h11.71v3.38h-11.71v5.47h12.72v3.38h-16.38v-20.45h16.38v3.38h-12.72v4.84Z"/>
      <path d="M1736.15,681.99c3.04,0,5.36-1.66,5.81-4.15h3.64c-.8,4.55-4.58,7.59-9.45,7.59-5.9,0-9.85-4.3-9.85-10.71s3.95-10.51,9.85-10.51c4.95,0,8.73,2.89,9.45,7.22h-3.64c-.43-2.26-2.75-3.78-5.81-3.78-3.72,0-6.21,2.84-6.21,7.07s2.49,7.27,6.21,7.27Z"/>
      <path d="M1764.33,667.9h-6.41v17.01h-3.64v-17.01h-6.39v-3.44h16.44v3.44Z"/>
      <path d="M1770.55,664.46v20.45h-3.64v-20.45h3.64Z"/>
      <path d="M1783.72,685.42c-6.36,0-10.6-4.27-10.6-10.65s4.24-10.57,10.6-10.57,10.57,4.24,10.57,10.57-4.24,10.65-10.57,10.65ZM1783.72,681.99c4.15,0,6.93-2.89,6.93-7.22s-2.78-7.13-6.93-7.13-6.96,2.86-6.96,7.13,2.78,7.22,6.96,7.22Z"/>
      <path d="M1815.79,664.46v20.45h-6.44l-8.28-17.47h-.57v17.47h-3.64v-20.45h6.82l7.9,17.47h.57v-17.47h3.64Z"/>
    </g>
  </g>
  <rect x="4716.38" y="2364.77" width="1077.26" height="1077.26"/>
  <rect x="4716.38" y="1187.59" width="1077.26" height="1077.26"/>
  <g>
    <g>
      <path class="cls-1" d="M6177.1,595.89c0-30.21,19.03-50.3,47.51-50.3,23.02,0,40.19,13.44,43.51,34.33h-17.96c-3.33-11.31-13.04-17.96-25.95-17.96-17.96,0-29.27,13.04-29.27,33.8s11.44,33.93,29.27,33.93c13.18,0,23.29-6.92,26.48-17.7h17.7c-3.73,20.49-21.56,34.07-44.58,34.07-28.34,0-46.71-19.69-46.71-50.17Z"/>
      <path class="cls-1" d="M6307.7,576.86c20.36,0,35.13,14.1,35.13,34.6s-14.77,34.6-35.13,34.6-35.13-14.11-35.13-34.6,14.77-34.6,35.13-34.6ZM6307.7,631.55c11.18,0,18.9-8.12,18.9-20.09s-7.72-20.09-18.9-20.09-18.9,8.12-18.9,20.09,7.72,20.09,18.9,20.09Z"/>
      <path class="cls-1" d="M6392.87,593.49h-5.99c-11.71,0-19.03,6.26-19.03,19.03v31.94h-16.23v-65.6h15.3l.93,9.58c2.79-6.52,9.05-10.91,17.83-10.91,2.26,0,4.52.27,7.18.93v15.04Z"/>
      <path class="cls-1" d="M6397.27,578.72h17.3l11.45,30.21c2.79,7.85,5.06,14.64,5.86,18.23.93-4.13,3.33-11.04,6.12-18.23l11.98-30.21h16.77l-27.41,65.74h-15.97l-26.08-65.74Z"/>
      <path class="cls-1" d="M6469.4,625.7c0-12.11,8.78-19.69,24.35-20.89l19.69-1.46v-1.46c0-8.91-5.32-12.51-13.57-12.51-9.58,0-14.9,3.99-14.9,10.91h-13.84c0-14.24,11.71-23.55,29.54-23.55s28.61,9.58,28.61,27.81v39.92h-14.24l-1.2-9.71c-2.8,6.79-11.71,11.44-21.96,11.44-13.97,0-22.49-8.12-22.49-20.49ZM6513.58,617.85v-3.46l-13.71,1.06c-10.11.93-13.97,4.26-13.97,9.58,0,5.99,3.99,8.92,11.31,8.92,9.98,0,16.37-5.99,16.37-16.1Z"/>
      <path class="cls-1" d="M6533.74,644.46v-65.74h15.04l1.33,8.52c4.13-6.65,12.11-10.51,21.03-10.51,16.5,0,25.02,10.25,25.02,27.28v40.45h-16.23v-36.59c0-11.04-5.45-16.37-13.84-16.37-9.98,0-16.1,6.92-16.1,17.56v35.4h-16.23Z"/>
      <path class="cls-1" d="M6613.18,644.46v-52.16h-12.64v-13.57h12.64v-20.49h16.23v20.49h12.77v13.57h-12.77v52.16h-16.23Z"/>
    </g>
    <g>
      <polygon class="cls-1" points="6431.95 436.45 6431.95 481.06 6387.34 481.06 6387.34 436.45 6342.73 391.84 6342.73 481.06 6387.34 525.67 6431.95 525.67 6476.56 481.06 6476.56 391.84 6431.95 436.45"/>
      <rect class="cls-1" x="6387.34" y="391.84" width="44.61" height="44.61"/>
    </g>
    <g>
      <path class="cls-1" d="M6291.75,674.66c0,6.16-4.15,10.25-10.37,10.25h-8.91v-20.45h9.54c5.84,0,9.74,4.07,9.74,10.2ZM6282.07,681.47c3.64,0,6.04-2.72,6.04-6.82s-2.69-6.76-6.73-6.76h-5.27v13.57h5.96Z"/>
      <path class="cls-1" d="M6306.67,680.07h-8.88l-1.92,4.84h-3.84l7.27-20.45h5.84l7.27,20.45h-3.84l-1.92-4.84ZM6305.56,676.86l-3.04-8.99h-.57l-3.04,8.99h6.64Z"/>
      <path class="cls-1" d="M6328.01,667.9h-6.42v17.01h-3.64v-17.01h-6.39v-3.44h16.44v3.44Z"/>
      <path class="cls-1" d="M6342.36,680.07h-8.88l-1.92,4.84h-3.84l7.27-20.45h5.84l7.27,20.45h-3.84l-1.92-4.84ZM6341.24,676.86l-3.04-8.99h-.57l-3.04,8.99h6.64Z"/>
      <path class="cls-1" d="M6376.44,671.02c0,4.12-2.61,6.56-7.04,6.56h-6.47v7.33h-3.64v-20.45h10.11c4.44,0,7.04,2.43,7.04,6.56ZM6369.39,674.14c2.15,0,3.41-1.15,3.41-3.12s-1.26-3.12-3.41-3.12h-6.47v6.24h6.47Z"/>
      <path class="cls-1" d="M6395.05,679.53v5.38h-3.64v-5.04c0-1.46-1.35-2.43-3.35-2.43h-5.99v7.47h-3.64v-20.45h10.25c4.15,0,6.9,2.38,6.9,5.96,0,2.43-1.72,4.44-4.27,5.01v.57c2.23.49,3.72,1.89,3.72,3.52ZM6388.98,674c1.78,0,2.98-1.23,2.98-3.06s-1.32-3.04-3.26-3.04h-6.62v6.1h6.9Z"/>
      <path class="cls-1" d="M6407.91,685.42c-6.36,0-10.6-4.27-10.6-10.65s4.24-10.57,10.6-10.57,10.57,4.24,10.57,10.57-4.24,10.65-10.57,10.65ZM6407.91,681.99c4.15,0,6.93-2.89,6.93-7.22s-2.78-7.13-6.93-7.13-6.96,2.86-6.96,7.13,2.78,7.22,6.96,7.22Z"/>
      <path class="cls-1" d="M6436.35,667.9h-6.41v17.01h-3.64v-17.01h-6.39v-3.44h16.44v3.44Z"/>
      <path class="cls-1" d="M6442.59,672.68h11.71v3.38h-11.71v5.47h12.72v3.38h-16.38v-20.45h16.38v3.38h-12.72v4.84Z"/>
      <path class="cls-1" d="M6467.16,681.99c3.04,0,5.36-1.66,5.81-4.15h3.64c-.8,4.55-4.58,7.59-9.45,7.59-5.9,0-9.85-4.3-9.85-10.71s3.95-10.51,9.85-10.51c4.95,0,8.73,2.89,9.45,7.22h-3.64c-.43-2.26-2.75-3.78-5.81-3.78-3.72,0-6.21,2.84-6.21,7.07s2.49,7.27,6.21,7.27Z"/>
      <path class="cls-1" d="M6495.34,667.9h-6.41v17.01h-3.64v-17.01h-6.39v-3.44h16.44v3.44Z"/>
      <path class="cls-1" d="M6501.56,664.46v20.45h-3.64v-20.45h3.64Z"/>
      <path class="cls-1" d="M6514.73,685.42c-6.36,0-10.6-4.27-10.6-10.65s4.24-10.57,10.6-10.57,10.57,4.24,10.57,10.57-4.24,10.65-10.57,10.65ZM6514.73,681.99c4.15,0,6.93-2.89,6.93-7.22s-2.78-7.13-6.93-7.13-6.96,2.86-6.96,7.13,2.78,7.22,6.96,7.22Z"/>
      <path class="cls-1" d="M6546.81,664.46v20.45h-6.44l-8.28-17.47h-.57v17.47h-3.64v-20.45h6.82l7.9,17.47h.57v-17.47h3.64Z"/>
    </g>
  </g>
  <g>
    <g>
      <path d="M3797.79,595.89c0-30.21,19.03-50.3,47.51-50.3,23.02,0,40.19,13.44,43.51,34.33h-17.96c-3.33-11.31-13.04-17.96-25.95-17.96-17.96,0-29.27,13.04-29.27,33.8s11.44,33.93,29.27,33.93c13.18,0,23.29-6.92,26.48-17.7h17.7c-3.73,20.49-21.56,34.07-44.58,34.07-28.34,0-46.71-19.69-46.71-50.17Z"/>
      <path d="M3928.4,576.86c20.36,0,35.13,14.1,35.13,34.6s-14.77,34.6-35.13,34.6-35.13-14.11-35.13-34.6,14.77-34.6,35.13-34.6ZM3928.4,631.55c11.18,0,18.9-8.12,18.9-20.09s-7.72-20.09-18.9-20.09-18.9,8.12-18.9,20.09,7.72,20.09,18.9,20.09Z"/>
      <path d="M4013.57,593.49h-5.99c-11.71,0-19.03,6.26-19.03,19.03v31.94h-16.23v-65.6h15.3l.93,9.58c2.79-6.52,9.05-10.91,17.83-10.91,2.26,0,4.52.27,7.18.93v15.04Z"/>
      <path d="M4017.96,578.72h17.3l11.45,30.21c2.79,7.85,5.06,14.64,5.86,18.23.93-4.13,3.33-11.04,6.12-18.23l11.98-30.21h16.77l-27.41,65.74h-15.97l-26.08-65.74Z"/>
      <path d="M4090.1,625.7c0-12.11,8.78-19.69,24.35-20.89l19.69-1.46v-1.46c0-8.91-5.32-12.51-13.57-12.51-9.58,0-14.9,3.99-14.9,10.91h-13.84c0-14.24,11.71-23.55,29.54-23.55s28.61,9.58,28.61,27.81v39.92h-14.24l-1.2-9.71c-2.8,6.79-11.71,11.44-21.96,11.44-13.97,0-22.49-8.12-22.49-20.49ZM4134.28,617.85v-3.46l-13.71,1.06c-10.11.93-13.97,4.26-13.97,9.58,0,5.99,3.99,8.92,11.31,8.92,9.98,0,16.37-5.99,16.37-16.1Z"/>
      <path d="M4154.44,644.46v-65.74h15.04l1.33,8.52c4.13-6.65,12.11-10.51,21.03-10.51,16.5,0,25.02,10.25,25.02,27.28v40.45h-16.23v-36.59c0-11.04-5.45-16.37-13.84-16.37-9.98,0-16.1,6.92-16.1,17.56v35.4h-16.23Z"/>
      <path d="M4233.88,644.46v-52.16h-12.64v-13.57h12.64v-20.49h16.23v20.49h12.77v13.57h-12.77v52.16h-16.23Z"/>
    </g>
    <g>
      <polygon points="4052.65 436.45 4052.65 481.06 4008.04 481.06 4008.04 436.45 3963.43 391.84 3963.43 481.06 4008.04 525.67 4052.65 525.67 4097.26 481.06 4097.26 391.84 4052.65 436.45"/>
      <rect x="4008.04" y="391.84" width="44.61" height="44.61"/>
    </g>
    <g>
      <path d="M3912.45,674.66c0,6.16-4.15,10.25-10.37,10.25h-8.91v-20.45h9.54c5.84,0,9.74,4.07,9.74,10.2ZM3902.77,681.47c3.64,0,6.04-2.72,6.04-6.82s-2.69-6.76-6.73-6.76h-5.27v13.57h5.96Z"/>
      <path d="M3927.37,680.07h-8.88l-1.92,4.84h-3.84l7.27-20.45h5.84l7.27,20.45h-3.84l-1.92-4.84ZM3926.25,676.86l-3.04-8.99h-.57l-3.04,8.99h6.64Z"/>
      <path d="M3948.71,667.9h-6.42v17.01h-3.64v-17.01h-6.39v-3.44h16.44v3.44Z"/>
      <path d="M3963.06,680.07h-8.88l-1.92,4.84h-3.84l7.27-20.45h5.84l7.27,20.45h-3.84l-1.92-4.84ZM3961.94,676.86l-3.04-8.99h-.57l-3.04,8.99h6.64Z"/>
      <path d="M3997.14,671.02c0,4.12-2.61,6.56-7.04,6.56h-6.47v7.33h-3.64v-20.45h10.11c4.44,0,7.04,2.43,7.04,6.56ZM3990.09,674.14c2.15,0,3.41-1.15,3.41-3.12s-1.26-3.12-3.41-3.12h-6.47v6.24h6.47Z"/>
      <path d="M4015.75,679.53v5.38h-3.64v-5.04c0-1.46-1.35-2.43-3.35-2.43h-5.99v7.47h-3.64v-20.45h10.25c4.15,0,6.9,2.38,6.9,5.96,0,2.43-1.72,4.44-4.27,5.01v.57c2.23.49,3.72,1.89,3.72,3.52ZM4009.68,674c1.78,0,2.98-1.23,2.98-3.06s-1.32-3.04-3.26-3.04h-6.62v6.1h6.9Z"/>
      <path d="M4028.61,685.42c-6.36,0-10.6-4.27-10.6-10.65s4.24-10.57,10.6-10.57,10.57,4.24,10.57,10.57-4.24,10.65-10.57,10.65ZM4028.61,681.99c4.15,0,6.93-2.89,6.93-7.22s-2.78-7.13-6.93-7.13-6.96,2.86-6.96,7.13,2.78,7.22,6.96,7.22Z"/>
      <path d="M4057.05,667.9h-6.41v17.01h-3.64v-17.01h-6.39v-3.44h16.44v3.44Z"/>
      <path d="M4063.29,672.68h11.71v3.38h-11.71v5.47h12.72v3.38h-16.38v-20.45h16.38v3.38h-12.72v4.84Z"/>
      <path d="M4087.86,681.99c3.04,0,5.36-1.66,5.81-4.15h3.64c-.8,4.55-4.58,7.59-9.45,7.59-5.9,0-9.85-4.3-9.85-10.71s3.95-10.51,9.85-10.51c4.95,0,8.73,2.89,9.45,7.22h-3.64c-.43-2.26-2.75-3.78-5.81-3.78-3.72,0-6.21,2.84-6.21,7.07s2.49,7.27,6.21,7.27Z"/>
      <path d="M4116.04,667.9h-6.41v17.01h-3.64v-17.01h-6.39v-3.44h16.44v3.44Z"/>
      <path d="M4122.26,664.46v20.45h-3.64v-20.45h3.64Z"/>
      <path d="M4135.43,685.42c-6.36,0-10.6-4.27-10.6-10.65s4.24-10.57,10.6-10.57,10.57,4.24,10.57,10.57-4.24,10.65-10.57,10.65ZM4135.43,681.99c4.15,0,6.93-2.89,6.93-7.22s-2.78-7.13-6.93-7.13-6.96,2.86-6.96,7.13,2.78,7.22,6.96,7.22Z"/>
      <path d="M4167.51,664.46v20.45h-6.44l-8.28-17.47h-.57v17.47h-3.64v-20.45h6.82l7.9,17.47h.57v-17.47h3.64Z"/>
    </g>
  </g>
  <g>
    <g>
      <path class="cls-1" d="M2586.08,595.89c0-30.21,19.03-50.3,47.51-50.3,23.02,0,40.19,13.44,43.51,34.33h-17.96c-3.33-11.31-13.04-17.96-25.95-17.96-17.96,0-29.27,13.04-29.27,33.8s11.44,33.93,29.27,33.93c13.18,0,23.29-6.92,26.48-17.7h17.7c-3.73,20.49-21.56,34.07-44.58,34.07-28.34,0-46.71-19.69-46.71-50.17Z"/>
      <path class="cls-1" d="M2716.69,576.86c20.36,0,35.13,14.1,35.13,34.6s-14.77,34.6-35.13,34.6-35.13-14.11-35.13-34.6,14.77-34.6,35.13-34.6ZM2716.69,631.55c11.18,0,18.9-8.12,18.9-20.09s-7.72-20.09-18.9-20.09-18.9,8.12-18.9,20.09,7.72,20.09,18.9,20.09Z"/>
      <path class="cls-1" d="M2801.86,593.49h-5.99c-11.71,0-19.03,6.26-19.03,19.03v31.94h-16.23v-65.6h15.3l.93,9.58c2.79-6.52,9.05-10.91,17.83-10.91,2.26,0,4.52.27,7.18.93v15.04Z"/>
      <path class="cls-1" d="M2806.25,578.72h17.3l11.45,30.21c2.79,7.85,5.06,14.64,5.86,18.23.93-4.13,3.33-11.04,6.12-18.23l11.98-30.21h16.77l-27.41,65.74h-15.97l-26.08-65.74Z"/>
      <path class="cls-1" d="M2878.39,625.7c0-12.11,8.78-19.69,24.35-20.89l19.69-1.46v-1.46c0-8.91-5.32-12.51-13.57-12.51-9.58,0-14.9,3.99-14.9,10.91h-13.84c0-14.24,11.71-23.55,29.54-23.55s28.61,9.58,28.61,27.81v39.92h-14.24l-1.2-9.71c-2.8,6.79-11.71,11.44-21.96,11.44-13.97,0-22.49-8.12-22.49-20.49ZM2922.57,617.85v-3.46l-13.71,1.06c-10.11.93-13.97,4.26-13.97,9.58,0,5.99,3.99,8.92,11.31,8.92,9.98,0,16.37-5.99,16.37-16.1Z"/>
      <path class="cls-1" d="M2942.72,644.46v-65.74h15.04l1.33,8.52c4.13-6.65,12.11-10.51,21.03-10.51,16.5,0,25.02,10.25,25.02,27.28v40.45h-16.23v-36.59c0-11.04-5.45-16.37-13.84-16.37-9.98,0-16.1,6.92-16.1,17.56v35.4h-16.23Z"/>
      <path class="cls-1" d="M3022.17,644.46v-52.16h-12.64v-13.57h12.64v-20.49h16.23v20.49h12.77v13.57h-12.77v52.16h-16.23Z"/>
    </g>
    <g>
      <polygon class="cls-1" points="2840.94 436.45 2840.94 481.06 2796.33 481.06 2796.33 436.45 2751.72 391.84 2751.72 481.06 2796.33 525.67 2840.94 525.67 2885.55 481.06 2885.55 391.84 2840.94 436.45"/>
      <rect class="cls-1" x="2796.33" y="391.84" width="44.61" height="44.61"/>
    </g>
    <g>
      <path class="cls-1" d="M2700.74,674.66c0,6.16-4.15,10.25-10.37,10.25h-8.91v-20.45h9.54c5.84,0,9.74,4.07,9.74,10.2ZM2691.06,681.47c3.64,0,6.04-2.72,6.04-6.82s-2.69-6.76-6.73-6.76h-5.27v13.57h5.96Z"/>
      <path class="cls-1" d="M2715.66,680.07h-8.88l-1.92,4.84h-3.84l7.27-20.45h5.84l7.27,20.45h-3.84l-1.92-4.84ZM2714.54,676.86l-3.04-8.99h-.57l-3.04,8.99h6.64Z"/>
      <path class="cls-1" d="M2737,667.9h-6.42v17.01h-3.64v-17.01h-6.39v-3.44h16.44v3.44Z"/>
      <path class="cls-1" d="M2751.34,680.07h-8.88l-1.92,4.84h-3.84l7.27-20.45h5.84l7.27,20.45h-3.84l-1.92-4.84ZM2750.23,676.86l-3.04-8.99h-.57l-3.04,8.99h6.64Z"/>
      <path class="cls-1" d="M2785.42,671.02c0,4.12-2.61,6.56-7.04,6.56h-6.47v7.33h-3.64v-20.45h10.11c4.44,0,7.04,2.43,7.04,6.56ZM2778.38,674.14c2.15,0,3.41-1.15,3.41-3.12s-1.26-3.12-3.41-3.12h-6.47v6.24h6.47Z"/>
      <path class="cls-1" d="M2804.04,679.53v5.38h-3.64v-5.04c0-1.46-1.35-2.43-3.35-2.43h-5.99v7.47h-3.64v-20.45h10.25c4.15,0,6.9,2.38,6.9,5.96,0,2.43-1.72,4.44-4.27,5.01v.57c2.23.49,3.72,1.89,3.72,3.52ZM2797.97,674c1.78,0,2.98-1.23,2.98-3.06s-1.32-3.04-3.26-3.04h-6.62v6.1h6.9Z"/>
      <path class="cls-1" d="M2816.9,685.42c-6.36,0-10.6-4.27-10.6-10.65s4.24-10.57,10.6-10.57,10.57,4.24,10.57,10.57-4.24,10.65-10.57,10.65ZM2816.9,681.99c4.15,0,6.93-2.89,6.93-7.22s-2.78-7.13-6.93-7.13-6.96,2.86-6.96,7.13,2.78,7.22,6.96,7.22Z"/>
      <path class="cls-1" d="M2845.34,667.9h-6.41v17.01h-3.64v-17.01h-6.39v-3.44h16.44v3.44Z"/>
      <path class="cls-1" d="M2851.58,672.68h11.71v3.38h-11.71v5.47h12.72v3.38h-16.38v-20.45h16.38v3.38h-12.72v4.84Z"/>
      <path class="cls-1" d="M2876.15,681.99c3.04,0,5.36-1.66,5.81-4.15h3.64c-.8,4.55-4.58,7.59-9.45,7.59-5.9,0-9.85-4.3-9.85-10.71s3.95-10.51,9.85-10.51c4.95,0,8.73,2.89,9.45,7.22h-3.64c-.43-2.26-2.75-3.78-5.81-3.78-3.72,0-6.21,2.84-6.21,7.07s2.49,7.27,6.21,7.27Z"/>
      <path class="cls-1" d="M2904.33,667.9h-6.41v17.01h-3.64v-17.01h-6.39v-3.44h16.44v3.44Z"/>
      <path class="cls-1" d="M2910.55,664.46v20.45h-3.64v-20.45h3.64Z"/>
      <path class="cls-1" d="M2923.72,685.42c-6.36,0-10.6-4.27-10.6-10.65s4.24-10.57,10.6-10.57,10.57,4.24,10.57,10.57-4.24,10.65-10.57,10.65ZM2923.72,681.99c4.15,0,6.93-2.89,6.93-7.22s-2.78-7.13-6.93-7.13-6.96,2.86-6.96,7.13,2.78,7.22,6.96,7.22Z"/>
      <path class="cls-1" d="M2955.79,664.46v20.45h-6.44l-8.28-17.47h-.57v17.47h-3.64v-20.45h6.82l7.9,17.47h.57v-17.47h3.64Z"/>
    </g>
  </g>
  <g>
    <path class="cls-1" d="M306.08,595.89c0-30.21,19.03-50.3,47.51-50.3,23.02,0,40.19,13.44,43.51,34.33h-17.96c-3.33-11.31-13.04-17.96-25.95-17.96-17.96,0-29.27,13.04-29.27,33.8s11.44,33.93,29.27,33.93c13.18,0,23.29-6.92,26.48-17.7h17.7c-3.73,20.49-21.56,34.07-44.58,34.07-28.34,0-46.71-19.69-46.71-50.17Z"/>
    <path class="cls-1" d="M436.69,576.86c20.36,0,35.13,14.1,35.13,34.6s-14.77,34.6-35.13,34.6-35.13-14.11-35.13-34.6,14.77-34.6,35.13-34.6ZM436.69,631.55c11.18,0,18.9-8.12,18.9-20.09s-7.72-20.09-18.9-20.09-18.9,8.12-18.9,20.09,7.72,20.09,18.9,20.09Z"/>
    <path class="cls-1" d="M521.86,593.49h-5.99c-11.71,0-19.03,6.26-19.03,19.03v31.94h-16.23v-65.6h15.3l.93,9.58c2.79-6.52,9.05-10.91,17.83-10.91,2.26,0,4.52.27,7.18.93v15.04Z"/>
    <path class="cls-1" d="M526.25,578.72h17.3l11.45,30.21c2.79,7.85,5.06,14.64,5.86,18.23.93-4.13,3.33-11.04,6.12-18.23l11.98-30.21h16.77l-27.41,65.74h-15.97l-26.08-65.74Z"/>
    <path class="cls-1" d="M598.39,625.7c0-12.11,8.78-19.69,24.35-20.89l19.69-1.46v-1.46c0-8.91-5.32-12.51-13.57-12.51-9.58,0-14.9,3.99-14.9,10.91h-13.84c0-14.24,11.71-23.55,29.54-23.55s28.61,9.58,28.61,27.81v39.92h-14.24l-1.2-9.71c-2.8,6.79-11.71,11.44-21.96,11.44-13.97,0-22.49-8.12-22.49-20.49ZM642.57,617.85v-3.46l-13.71,1.06c-10.11.93-13.97,4.26-13.97,9.58,0,5.99,3.99,8.92,11.31,8.92,9.98,0,16.37-5.99,16.37-16.1Z"/>
    <path class="cls-1" d="M662.72,644.46v-65.74h15.04l1.33,8.52c4.13-6.65,12.11-10.51,21.03-10.51,16.5,0,25.02,10.25,25.02,27.28v40.45h-16.23v-36.59c0-11.04-5.45-16.37-13.84-16.37-9.98,0-16.1,6.92-16.1,17.56v35.4h-16.23Z"/>
    <path class="cls-1" d="M742.17,644.46v-52.16h-12.64v-13.57h12.64v-20.49h16.23v20.49h12.77v13.57h-12.77v52.16h-16.23Z"/>
  </g>
  <g>
    <polygon class="cls-2" points="560.94 436.45 560.94 481.06 516.33 481.06 516.33 436.45 471.72 391.84 471.72 481.06 516.33 525.67 560.94 525.67 605.55 481.06 605.55 391.84 560.94 436.45"/>
    <rect class="cls-2" x="516.33" y="391.84" width="44.61" height="44.61"/>
  </g>
  <g>
    <path class="cls-1" d="M420.74,674.66c0,6.16-4.15,10.25-10.37,10.25h-8.91v-20.45h9.54c5.84,0,9.74,4.07,9.74,10.2ZM411.06,681.47c3.64,0,6.04-2.72,6.04-6.82s-2.69-6.76-6.73-6.76h-5.27v13.57h5.96Z"/>
    <path class="cls-1" d="M435.66,680.07h-8.88l-1.92,4.84h-3.84l7.27-20.45h5.84l7.27,20.45h-3.84l-1.92-4.84ZM434.54,676.86l-3.04-8.99h-.57l-3.04,8.99h6.64Z"/>
    <path class="cls-1" d="M457,667.9h-6.42v17.01h-3.64v-17.01h-6.39v-3.44h16.44v3.44Z"/>
    <path class="cls-1" d="M471.34,680.07h-8.88l-1.92,4.84h-3.84l7.27-20.45h5.84l7.27,20.45h-3.84l-1.92-4.84ZM470.23,676.86l-3.04-8.99h-.57l-3.04,8.99h6.64Z"/>
    <path class="cls-1" d="M505.42,671.02c0,4.12-2.61,6.56-7.04,6.56h-6.47v7.33h-3.64v-20.45h10.11c4.44,0,7.04,2.43,7.04,6.56ZM498.38,674.14c2.15,0,3.41-1.15,3.41-3.12s-1.26-3.12-3.41-3.12h-6.47v6.24h6.47Z"/>
    <path class="cls-1" d="M524.04,679.53v5.38h-3.64v-5.04c0-1.46-1.35-2.43-3.35-2.43h-5.99v7.47h-3.64v-20.45h10.25c4.15,0,6.9,2.38,6.9,5.96,0,2.43-1.72,4.44-4.27,5.01v.57c2.23.49,3.72,1.89,3.72,3.52ZM517.97,674c1.78,0,2.98-1.23,2.98-3.06s-1.32-3.04-3.26-3.04h-6.62v6.1h6.9Z"/>
    <path class="cls-1" d="M536.9,685.42c-6.36,0-10.6-4.27-10.6-10.65s4.24-10.57,10.6-10.57,10.57,4.24,10.57,10.57-4.24,10.65-10.57,10.65ZM536.9,681.99c4.15,0,6.93-2.89,6.93-7.22s-2.78-7.13-6.93-7.13-6.96,2.86-6.96,7.13,2.78,7.22,6.96,7.22Z"/>
    <path class="cls-1" d="M565.34,667.9h-6.41v17.01h-3.64v-17.01h-6.39v-3.44h16.44v3.44Z"/>
    <path class="cls-1" d="M571.58,672.68h11.71v3.38h-11.71v5.47h12.72v3.38h-16.38v-20.45h16.38v3.38h-12.72v4.84Z"/>
    <path class="cls-1" d="M596.15,681.99c3.04,0,5.36-1.66,5.81-4.15h3.64c-.8,4.55-4.58,7.59-9.45,7.59-5.9,0-9.85-4.3-9.85-10.71s3.95-10.51,9.85-10.51c4.95,0,8.73,2.89,9.45,7.22h-3.64c-.43-2.26-2.75-3.78-5.81-3.78-3.72,0-6.21,2.84-6.21,7.07s2.49,7.27,6.21,7.27Z"/>
    <path class="cls-1" d="M624.33,667.9h-6.41v17.01h-3.64v-17.01h-6.39v-3.44h16.44v3.44Z"/>
    <path class="cls-1" d="M630.55,664.46v20.45h-3.64v-20.45h3.64Z"/>
    <path class="cls-1" d="M643.72,685.42c-6.36,0-10.6-4.27-10.6-10.65s4.24-10.57,10.6-10.57,10.57,4.24,10.57,10.57-4.24,10.65-10.57,10.65ZM643.72,681.99c4.15,0,6.93-2.89,6.93-7.22s-2.78-7.13-6.93-7.13-6.96,2.86-6.96,7.13,2.78,7.22,6.96,7.22Z"/>
    <path class="cls-1" d="M675.79,664.46v20.45h-6.44l-8.28-17.47h-.57v17.47h-3.64v-20.45h6.82l7.9,17.47h.57v-17.47h3.64Z"/>
  </g>
  <g>
    <g>
      <path class="cls-1" d="M351.12,1705.39c0-34.83,21.94-58,54.78-58,26.55,0,46.34,15.5,50.18,39.59h-20.72c-3.84-13.04-15.04-20.72-29.92-20.72-20.72,0-33.76,15.04-33.76,38.98s13.2,39.13,33.76,39.13c15.19,0,26.86-7.98,30.54-20.41h20.41c-4.3,23.63-24.86,39.28-51.4,39.28-32.68,0-53.86-22.71-53.86-57.85Z"/>
      <path class="cls-1" d="M501.73,1683.45c23.48,0,40.51,16.26,40.51,39.9s-17.03,39.9-40.51,39.9-40.51-16.27-40.51-39.9,17.03-39.9,40.51-39.9ZM501.73,1746.51c12.89,0,21.79-9.36,21.79-23.17s-8.9-23.17-21.79-23.17-21.79,9.36-21.79,23.17,8.9,23.17,21.79,23.17Z"/>
      <path class="cls-1" d="M599.94,1702.63h-6.91c-13.5,0-21.94,7.21-21.94,21.94v36.83h-18.72v-75.65h17.65l1.07,11.05c3.22-7.52,10.44-12.58,20.56-12.58,2.61,0,5.22.31,8.29,1.07v17.34Z"/>
      <path class="cls-1" d="M605.01,1685.59h19.95l13.2,34.83c3.22,9.06,5.83,16.88,6.75,21.02,1.07-4.76,3.84-12.74,7.06-21.02l13.81-34.83h19.34l-31.61,75.8h-18.41l-30.08-75.8Z"/>
      <path class="cls-1" d="M688.19,1739.76c0-13.96,10.13-22.71,28.08-24.09l22.71-1.69v-1.69c0-10.28-6.14-14.43-15.65-14.43-11.05,0-17.18,4.6-17.18,12.58h-15.96c0-16.42,13.5-27.16,34.07-27.16s32.99,11.05,32.99,32.07v46.04h-16.42l-1.38-11.2c-3.22,7.83-13.5,13.2-25.32,13.2-16.11,0-25.93-9.36-25.93-23.63ZM739.14,1730.71v-3.99l-15.81,1.23c-11.66,1.07-16.11,4.91-16.11,11.05,0,6.91,4.6,10.28,13.04,10.28,11.51,0,18.87-6.91,18.87-18.57Z"/>
      <path class="cls-1" d="M762.38,1761.4v-75.8h17.34l1.53,9.82c4.76-7.67,13.96-12.12,24.25-12.12,19.03,0,28.85,11.82,28.85,31.46v46.65h-18.72v-42.2c0-12.74-6.29-18.87-15.96-18.87-11.51,0-18.57,7.98-18.57,20.25v40.82h-18.72Z"/>
      <path class="cls-1" d="M853.99,1761.4v-60.15h-14.58v-15.65h14.58v-23.63h18.72v23.63h14.73v15.65h-14.73v60.15h-18.72Z"/>
    </g>
    <g>
      <polygon class="cls-2" points="267.02 1686.07 267.02 1724.67 228.42 1724.67 228.42 1686.07 189.82 1647.46 189.82 1724.67 228.42 1763.27 267.02 1763.27 305.63 1724.67 305.63 1647.46 267.02 1686.07"/>
      <rect class="cls-2" x="228.42" y="1647.46" width="38.6" height="38.6"/>
    </g>
  </g>
  <g>
    <polygon class="cls-2" points="573.44 2858.18 573.44 2927.79 503.83 2927.79 503.83 2858.18 434.21 2788.57 434.21 2927.79 503.83 2997.4 573.44 2997.4 643.05 2927.79 643.05 2788.57 573.44 2858.18"/>
    <rect class="cls-2" x="503.83" y="2788.57" width="69.61" height="69.61"/>
  </g>
  <g>
    <polygon class="cls-2" points="1713.44 2858.18 1713.44 2927.79 1643.83 2927.79 1643.83 2858.18 1574.21 2788.57 1574.21 2927.79 1643.83 2997.4 1713.44 2997.4 1783.05 2927.79 1783.05 2788.57 1713.44 2858.18"/>
    <rect class="cls-2" x="1643.83" y="2788.57" width="69.61" height="69.61"/>
  </g>
  <g>
    <polygon class="cls-1" points="2853.44 2858.18 2853.44 2927.79 2783.83 2927.79 2783.83 2858.18 2714.21 2788.57 2714.21 2927.79 2783.83 2997.4 2853.44 2997.4 2923.05 2927.79 2923.05 2788.57 2853.44 2858.18"/>
    <rect class="cls-1" x="2783.83" y="2788.57" width="69.61" height="69.61"/>
  </g>
  <g>
    <polygon points="4065.15 2868.6 4065.15 2938.21 3995.54 2938.21 3995.54 2868.6 3925.93 2798.98 3925.93 2938.21 3995.54 3007.82 4065.15 3007.82 4134.76 2938.21 4134.76 2798.98 4065.15 2868.6"/>
    <rect x="3995.54" y="2798.98" width="69.61" height="69.61"/>
  </g>
  <g>
    <polygon class="cls-1" points="6444.45 2868.6 6444.45 2938.21 6374.84 2938.21 6374.84 2868.6 6305.23 2798.98 6305.23 2938.21 6374.84 3007.82 6444.45 3007.82 6514.06 2938.21 6514.06 2798.98 6444.45 2868.6"/>
    <rect class="cls-1" x="6374.84" y="2798.98" width="69.61" height="69.61"/>
  </g>
  <g>
    <path d="M1491.12,1705.39c0-34.83,21.94-58,54.78-58,26.55,0,46.34,15.5,50.18,39.59h-20.72c-3.84-13.04-15.04-20.72-29.92-20.72-20.72,0-33.76,15.04-33.76,38.98s13.2,39.13,33.76,39.13c15.19,0,26.86-7.98,30.54-20.41h20.41c-4.3,23.63-24.86,39.28-51.4,39.28-32.68,0-53.86-22.71-53.86-57.85Z"/>
    <path d="M1641.73,1683.45c23.48,0,40.51,16.26,40.51,39.9s-17.03,39.9-40.51,39.9-40.51-16.27-40.51-39.9,17.03-39.9,40.51-39.9ZM1641.73,1746.51c12.89,0,21.79-9.36,21.79-23.17s-8.9-23.17-21.79-23.17-21.79,9.36-21.79,23.17,8.9,23.17,21.79,23.17Z"/>
    <path d="M1739.94,1702.63h-6.91c-13.5,0-21.94,7.21-21.94,21.94v36.83h-18.72v-75.65h17.65l1.07,11.05c3.22-7.52,10.44-12.58,20.56-12.58,2.61,0,5.22.31,8.29,1.07v17.34Z"/>
    <path d="M1745.01,1685.59h19.95l13.2,34.83c3.22,9.06,5.83,16.88,6.75,21.02,1.07-4.76,3.84-12.74,7.06-21.02l13.81-34.83h19.34l-31.61,75.8h-18.41l-30.08-75.8Z"/>
    <path d="M1828.19,1739.76c0-13.96,10.13-22.71,28.08-24.09l22.71-1.69v-1.69c0-10.28-6.14-14.43-15.65-14.43-11.05,0-17.18,4.6-17.18,12.58h-15.96c0-16.42,13.5-27.16,34.07-27.16s32.99,11.05,32.99,32.07v46.04h-16.42l-1.38-11.2c-3.22,7.83-13.5,13.2-25.32,13.2-16.11,0-25.93-9.36-25.93-23.63ZM1879.14,1730.71v-3.99l-15.81,1.23c-11.66,1.07-16.11,4.91-16.11,11.05,0,6.91,4.6,10.28,13.04,10.28,11.51,0,18.87-6.91,18.87-18.57Z"/>
    <path d="M1902.38,1761.4v-75.8h17.34l1.53,9.82c4.76-7.67,13.96-12.12,24.25-12.12,19.03,0,28.85,11.82,28.85,31.46v46.65h-18.72v-42.2c0-12.74-6.29-18.87-15.96-18.87-11.51,0-18.57,7.98-18.57,20.25v40.82h-18.72Z"/>
    <path d="M1993.99,1761.4v-60.15h-14.58v-15.65h14.58v-23.63h18.72v23.63h14.73v15.65h-14.73v60.15h-18.72Z"/>
    <polygon class="cls-2" points="1407.02 1686.07 1407.02 1724.67 1368.42 1724.67 1368.42 1686.07 1329.82 1647.46 1329.82 1724.67 1368.42 1763.27 1407.02 1763.27 1445.63 1724.67 1445.63 1647.46 1407.02 1686.07"/>
    <rect class="cls-2" x="1368.42" y="1647.46" width="38.6" height="38.6"/>
  </g>
  <g>
    <g>
      <path class="cls-1" d="M2577.85,1705.39c0-34.83,21.94-58,54.78-58,26.55,0,46.34,15.5,50.18,39.59h-20.72c-3.84-13.04-15.04-20.72-29.92-20.72-20.72,0-33.76,15.04-33.76,38.98s13.2,39.13,33.76,39.13c15.19,0,26.86-7.98,30.54-20.41h20.41c-4.3,23.63-24.86,39.28-51.4,39.28-32.68,0-53.86-22.71-53.86-57.85Z"/>
      <path class="cls-1" d="M2728.46,1683.45c23.48,0,40.51,16.26,40.51,39.9s-17.03,39.9-40.51,39.9-40.51-16.27-40.51-39.9,17.03-39.9,40.51-39.9ZM2728.46,1746.51c12.89,0,21.79-9.36,21.79-23.17s-8.9-23.17-21.79-23.17-21.79,9.36-21.79,23.17,8.9,23.17,21.79,23.17Z"/>
      <path class="cls-1" d="M2826.68,1702.63h-6.91c-13.5,0-21.94,7.21-21.94,21.94v36.83h-18.72v-75.65h17.65l1.07,11.05c3.22-7.52,10.44-12.58,20.56-12.58,2.61,0,5.22.31,8.29,1.07v17.34Z"/>
      <path class="cls-1" d="M2831.74,1685.59h19.95l13.2,34.83c3.22,9.06,5.83,16.88,6.75,21.02,1.07-4.76,3.84-12.74,7.06-21.02l13.81-34.83h19.34l-31.61,75.8h-18.41l-30.08-75.8Z"/>
      <path class="cls-1" d="M2914.93,1739.76c0-13.96,10.13-22.71,28.08-24.09l22.71-1.69v-1.69c0-10.28-6.14-14.43-15.65-14.43-11.05,0-17.18,4.6-17.18,12.58h-15.96c0-16.42,13.5-27.16,34.07-27.16s32.99,11.05,32.99,32.07v46.04h-16.42l-1.38-11.2c-3.22,7.83-13.5,13.2-25.32,13.2-16.11,0-25.93-9.36-25.93-23.63ZM2965.87,1730.71v-3.99l-15.81,1.23c-11.66,1.07-16.11,4.91-16.11,11.05,0,6.91,4.6,10.28,13.04,10.28,11.51,0,18.87-6.91,18.87-18.57Z"/>
      <path class="cls-1" d="M2989.12,1761.4v-75.8h17.34l1.53,9.82c4.76-7.67,13.96-12.12,24.25-12.12,19.03,0,28.85,11.82,28.85,31.46v46.65h-18.72v-42.2c0-12.74-6.29-18.87-15.96-18.87-11.51,0-18.57,7.98-18.57,20.25v40.82h-18.72Z"/>
      <path class="cls-1" d="M3080.73,1761.4v-60.15h-14.58v-15.65h14.58v-23.63h18.72v23.63h14.73v15.65h-14.73v60.15h-18.72Z"/>
    </g>
    <g>
      <polygon class="cls-1" points="2493.76 1686.07 2493.76 1724.67 2455.16 1724.67 2455.16 1686.07 2416.55 1647.46 2416.55 1724.67 2455.16 1763.27 2493.76 1763.27 2532.36 1724.67 2532.36 1647.46 2493.76 1686.07"/>
      <rect class="cls-1" x="2455.16" y="1647.46" width="38.6" height="38.6"/>
    </g>
  </g>
  <g>
    <g>
      <path class="cls-1" d="M6222.13,1726.22c0-34.83,21.94-58,54.78-58,26.55,0,46.34,15.5,50.18,39.59h-20.72c-3.84-13.04-15.04-20.72-29.92-20.72-20.72,0-33.76,15.04-33.76,38.98s13.2,39.13,33.76,39.13c15.19,0,26.86-7.98,30.54-20.41h20.41c-4.3,23.63-24.86,39.28-51.4,39.28-32.68,0-53.86-22.71-53.86-57.85Z"/>
      <path class="cls-1" d="M6372.74,1704.28c23.48,0,40.51,16.26,40.51,39.9s-17.03,39.9-40.51,39.9-40.51-16.27-40.51-39.9,17.03-39.9,40.51-39.9ZM6372.74,1767.35c12.89,0,21.79-9.36,21.79-23.17s-8.9-23.17-21.79-23.17-21.79,9.36-21.79,23.17,8.9,23.17,21.79,23.17Z"/>
      <path class="cls-1" d="M6470.95,1723.46h-6.91c-13.5,0-21.94,7.21-21.94,21.94v36.83h-18.72v-75.65h17.65l1.07,11.05c3.22-7.52,10.44-12.58,20.56-12.58,2.61,0,5.22.31,8.29,1.07v17.34Z"/>
      <path class="cls-1" d="M6476.02,1706.43h19.95l13.2,34.83c3.22,9.06,5.83,16.88,6.75,21.02,1.07-4.76,3.84-12.74,7.06-21.02l13.81-34.83h19.34l-31.61,75.8h-18.41l-30.08-75.8Z"/>
      <path class="cls-1" d="M6559.2,1760.6c0-13.96,10.13-22.71,28.08-24.09l22.71-1.69v-1.69c0-10.28-6.14-14.43-15.65-14.43-11.05,0-17.18,4.6-17.18,12.58h-15.96c0-16.42,13.5-27.16,34.07-27.16s32.99,11.05,32.99,32.07v46.04h-16.42l-1.38-11.2c-3.22,7.83-13.5,13.2-25.32,13.2-16.11,0-25.93-9.36-25.93-23.63ZM6610.15,1751.54v-3.99l-15.81,1.23c-11.66,1.07-16.11,4.91-16.11,11.05,0,6.91,4.6,10.28,13.04,10.28,11.51,0,18.87-6.91,18.87-18.57Z"/>
      <path class="cls-1" d="M6633.39,1782.23v-75.8h17.34l1.53,9.82c4.76-7.67,13.96-12.12,24.25-12.12,19.03,0,28.85,11.82,28.85,31.46v46.65h-18.72v-42.2c0-12.74-6.29-18.87-15.96-18.87-11.51,0-18.57,7.98-18.57,20.25v40.82h-18.72Z"/>
      <path class="cls-1" d="M6725,1782.23v-60.15h-14.58v-15.65h14.58v-23.63h18.72v23.63h14.73v15.65h-14.73v60.15h-18.72Z"/>
    </g>
    <g>
      <polygon class="cls-1" points="6138.04 1706.9 6138.04 1745.5 6099.43 1745.5 6099.43 1706.9 6060.83 1668.3 6060.83 1745.5 6099.43 1784.11 6138.04 1784.11 6176.64 1745.5 6176.64 1668.3 6138.04 1706.9"/>
      <rect class="cls-1" x="6099.43" y="1668.3" width="38.6" height="38.6"/>
    </g>
  </g>
  <rect x="4716.38" width="1077.26" height="1077.26"/>
  <g>
    <g>
      <path class="cls-1" d="M5022.47,595.89c0-30.21,19.03-50.3,47.51-50.3,23.02,0,40.19,13.44,43.51,34.33h-17.96c-3.33-11.31-13.04-17.96-25.95-17.96-17.96,0-29.27,13.04-29.27,33.8s11.44,33.93,29.27,33.93c13.18,0,23.29-6.92,26.48-17.7h17.7c-3.73,20.49-21.56,34.07-44.58,34.07-28.34,0-46.71-19.69-46.71-50.17Z"/>
      <path class="cls-1" d="M5153.07,576.86c20.36,0,35.13,14.1,35.13,34.6s-14.77,34.6-35.13,34.6-35.13-14.11-35.13-34.6,14.77-34.6,35.13-34.6ZM5153.07,631.55c11.18,0,18.9-8.12,18.9-20.09s-7.72-20.09-18.9-20.09-18.9,8.12-18.9,20.09,7.72,20.09,18.9,20.09Z"/>
      <path class="cls-1" d="M5238.24,593.49h-5.99c-11.71,0-19.03,6.26-19.03,19.03v31.94h-16.23v-65.6h15.3l.93,9.58c2.79-6.52,9.05-10.91,17.83-10.91,2.26,0,4.52.27,7.18.93v15.04Z"/>
      <path class="cls-1" d="M5242.64,578.72h17.3l11.45,30.21c2.79,7.85,5.06,14.64,5.86,18.23.93-4.13,3.33-11.04,6.12-18.23l11.98-30.21h16.77l-27.41,65.74h-15.97l-26.08-65.74Z"/>
      <path class="cls-1" d="M5314.77,625.7c0-12.11,8.78-19.69,24.35-20.89l19.69-1.46v-1.46c0-8.91-5.32-12.51-13.57-12.51-9.58,0-14.9,3.99-14.9,10.91h-13.84c0-14.24,11.71-23.55,29.54-23.55s28.61,9.58,28.61,27.81v39.92h-14.24l-1.2-9.71c-2.8,6.79-11.71,11.44-21.96,11.44-13.97,0-22.49-8.12-22.49-20.49ZM5358.95,617.85v-3.46l-13.71,1.06c-10.11.93-13.97,4.26-13.97,9.58,0,5.99,3.99,8.92,11.31,8.92,9.98,0,16.37-5.99,16.37-16.1Z"/>
      <path class="cls-1" d="M5379.11,644.46v-65.74h15.04l1.33,8.52c4.13-6.65,12.11-10.51,21.03-10.51,16.5,0,25.02,10.25,25.02,27.28v40.45h-16.23v-36.59c0-11.04-5.45-16.37-13.84-16.37-9.98,0-16.1,6.92-16.1,17.56v35.4h-16.23Z"/>
      <path class="cls-1" d="M5458.55,644.46v-52.16h-12.64v-13.57h12.64v-20.49h16.23v20.49h12.77v13.57h-12.77v52.16h-16.23Z"/>
    </g>
    <g>
      <polygon class="cls-1" points="5277.32 436.45 5277.32 481.06 5232.71 481.06 5232.71 436.45 5188.1 391.84 5188.1 481.06 5232.71 525.67 5277.32 525.67 5321.93 481.06 5321.93 391.84 5277.32 436.45"/>
      <rect class="cls-1" x="5232.71" y="391.84" width="44.61" height="44.61"/>
    </g>
    <g>
      <path class="cls-1" d="M5137.12,674.66c0,6.16-4.15,10.25-10.37,10.25h-8.91v-20.45h9.54c5.84,0,9.74,4.07,9.74,10.2ZM5127.44,681.47c3.64,0,6.04-2.72,6.04-6.82s-2.69-6.76-6.73-6.76h-5.27v13.57h5.96Z"/>
      <path class="cls-1" d="M5152.04,680.07h-8.88l-1.92,4.84h-3.84l7.27-20.45h5.84l7.27,20.45h-3.84l-1.92-4.84ZM5150.93,676.86l-3.04-8.99h-.57l-3.04,8.99h6.64Z"/>
      <path class="cls-1" d="M5173.38,667.9h-6.42v17.01h-3.64v-17.01h-6.39v-3.44h16.44v3.44Z"/>
      <path class="cls-1" d="M5187.73,680.07h-8.88l-1.92,4.84h-3.84l7.27-20.45h5.84l7.27,20.45h-3.84l-1.92-4.84ZM5186.61,676.86l-3.04-8.99h-.57l-3.04,8.99h6.64Z"/>
      <path class="cls-1" d="M5221.81,671.02c0,4.12-2.61,6.56-7.04,6.56h-6.47v7.33h-3.64v-20.45h10.11c4.44,0,7.04,2.43,7.04,6.56ZM5214.76,674.14c2.15,0,3.41-1.15,3.41-3.12s-1.26-3.12-3.41-3.12h-6.47v6.24h6.47Z"/>
      <path class="cls-1" d="M5240.42,679.53v5.38h-3.64v-5.04c0-1.46-1.35-2.43-3.35-2.43h-5.99v7.47h-3.64v-20.45h10.25c4.15,0,6.9,2.38,6.9,5.96,0,2.43-1.72,4.44-4.27,5.01v.57c2.23.49,3.72,1.89,3.72,3.52ZM5234.35,674c1.78,0,2.98-1.23,2.98-3.06s-1.32-3.04-3.26-3.04h-6.62v6.1h6.9Z"/>
      <path class="cls-1" d="M5253.28,685.42c-6.36,0-10.6-4.27-10.6-10.65s4.24-10.57,10.6-10.57,10.57,4.24,10.57,10.57-4.24,10.65-10.57,10.65ZM5253.28,681.99c4.15,0,6.93-2.89,6.93-7.22s-2.78-7.13-6.93-7.13-6.96,2.86-6.96,7.13,2.78,7.22,6.96,7.22Z"/>
      <path class="cls-1" d="M5281.72,667.9h-6.41v17.01h-3.64v-17.01h-6.39v-3.44h16.44v3.44Z"/>
      <path class="cls-1" d="M5287.96,672.68h11.71v3.38h-11.71v5.47h12.72v3.38h-16.38v-20.45h16.38v3.38h-12.72v4.84Z"/>
      <path class="cls-1" d="M5312.53,681.99c3.04,0,5.36-1.66,5.81-4.15h3.64c-.8,4.55-4.58,7.59-9.45,7.59-5.9,0-9.85-4.3-9.85-10.71s3.95-10.51,9.85-10.51c4.95,0,8.73,2.89,9.45,7.22h-3.64c-.43-2.26-2.75-3.78-5.81-3.78-3.72,0-6.21,2.84-6.21,7.07s2.49,7.27,6.21,7.27Z"/>
      <path class="cls-1" d="M5340.71,667.9h-6.41v17.01h-3.64v-17.01h-6.39v-3.44h16.44v3.44Z"/>
      <path class="cls-1" d="M5346.93,664.46v20.45h-3.64v-20.45h3.64Z"/>
      <path class="cls-1" d="M5360.1,685.42c-6.36,0-10.6-4.27-10.6-10.65s4.24-10.57,10.6-10.57,10.57,4.24,10.57,10.57-4.24,10.65-10.57,10.65ZM5360.1,681.99c4.15,0,6.93-2.89,6.93-7.22s-2.78-7.13-6.93-7.13-6.96,2.86-6.96,7.13,2.78,7.22,6.96,7.22Z"/>
      <path class="cls-1" d="M5392.18,664.46v20.45h-6.44l-8.28-17.47h-.57v17.47h-3.64v-20.45h6.82l7.9,17.47h.57v-17.47h3.64Z"/>
    </g>
  </g>
  <g>
    <polygon class="cls-1" points="5289.82 2868.6 5289.82 2938.21 5220.21 2938.21 5220.21 2868.6 5150.6 2798.98 5150.6 2938.21 5220.21 3007.82 5289.82 3007.82 5359.43 2938.21 5359.43 2798.98 5289.82 2868.6"/>
    <rect class="cls-1" x="5220.21" y="2798.98" width="69.61" height="69.61"/>
  </g>
  <g>
    <g>
      <path class="cls-1" d="M5067.5,1726.22c0-34.83,21.94-58,54.78-58,26.55,0,46.34,15.5,50.18,39.59h-20.72c-3.84-13.04-15.04-20.72-29.92-20.72-20.72,0-33.76,15.04-33.76,38.98s13.2,39.13,33.76,39.13c15.19,0,26.86-7.98,30.54-20.41h20.41c-4.3,23.63-24.86,39.28-51.4,39.28-32.68,0-53.86-22.71-53.86-57.85Z"/>
      <path class="cls-1" d="M5218.11,1704.28c23.48,0,40.51,16.26,40.51,39.9s-17.03,39.9-40.51,39.9-40.51-16.27-40.51-39.9,17.03-39.9,40.51-39.9ZM5218.11,1767.35c12.89,0,21.79-9.36,21.79-23.17s-8.9-23.17-21.79-23.17-21.79,9.36-21.79,23.17,8.9,23.17,21.79,23.17Z"/>
      <path class="cls-1" d="M5316.32,1723.46h-6.91c-13.5,0-21.94,7.21-21.94,21.94v36.83h-18.72v-75.65h17.65l1.07,11.05c3.22-7.52,10.44-12.58,20.56-12.58,2.61,0,5.22.31,8.29,1.07v17.34Z"/>
      <path class="cls-1" d="M5321.39,1706.43h19.95l13.2,34.83c3.22,9.06,5.83,16.88,6.75,21.02,1.07-4.76,3.84-12.74,7.06-21.02l13.81-34.83h19.34l-31.61,75.8h-18.41l-30.08-75.8Z"/>
      <path class="cls-1" d="M5404.57,1760.6c0-13.96,10.13-22.71,28.08-24.09l22.71-1.69v-1.69c0-10.28-6.14-14.43-15.65-14.43-11.05,0-17.18,4.6-17.18,12.58h-15.96c0-16.42,13.5-27.16,34.07-27.16s32.99,11.05,32.99,32.07v46.04h-16.42l-1.38-11.2c-3.22,7.83-13.5,13.2-25.32,13.2-16.11,0-25.93-9.36-25.93-23.63ZM5455.52,1751.54v-3.99l-15.81,1.23c-11.66,1.07-16.11,4.91-16.11,11.05,0,6.91,4.6,10.28,13.04,10.28,11.51,0,18.87-6.91,18.87-18.57Z"/>
      <path class="cls-1" d="M5478.76,1782.23v-75.8h17.34l1.53,9.82c4.76-7.67,13.96-12.12,24.25-12.12,19.03,0,28.85,11.82,28.85,31.46v46.65h-18.72v-42.2c0-12.74-6.29-18.87-15.96-18.87-11.51,0-18.57,7.98-18.57,20.25v40.82h-18.72Z"/>
      <path class="cls-1" d="M5570.37,1782.23v-60.15h-14.58v-15.65h14.58v-23.63h18.72v23.63h14.73v15.65h-14.73v60.15h-18.72Z"/>
    </g>
    <g>
      <polygon class="cls-1" points="4983.4 1706.9 4983.4 1745.5 4944.8 1745.5 4944.8 1706.9 4906.2 1668.3 4906.2 1745.5 4944.8 1784.11 4983.4 1784.11 5022.01 1745.5 5022.01 1668.3 4983.4 1706.9"/>
      <rect class="cls-1" x="4944.8" y="1668.3" width="38.6" height="38.6"/>
    </g>
  </g>
  <g>
    <g>
      <path d="M3842.83,1726.22c0-34.83,21.94-58,54.78-58,26.55,0,46.34,15.5,50.18,39.59h-20.72c-3.84-13.04-15.04-20.72-29.92-20.72-20.72,0-33.76,15.04-33.76,38.98s13.2,39.13,33.76,39.13c15.19,0,26.86-7.98,30.54-20.41h20.41c-4.3,23.63-24.86,39.28-51.4,39.28-32.68,0-53.86-22.71-53.86-57.85Z"/>
      <path d="M3993.44,1704.28c23.48,0,40.51,16.26,40.51,39.9s-17.03,39.9-40.51,39.9-40.51-16.27-40.51-39.9,17.03-39.9,40.51-39.9ZM3993.44,1767.35c12.89,0,21.79-9.36,21.79-23.17s-8.9-23.17-21.79-23.17-21.79,9.36-21.79,23.17,8.9,23.17,21.79,23.17Z"/>
      <path d="M4091.65,1723.46h-6.91c-13.5,0-21.94,7.21-21.94,21.94v36.83h-18.72v-75.65h17.65l1.07,11.05c3.22-7.52,10.44-12.58,20.56-12.58,2.61,0,5.22.31,8.29,1.07v17.34Z"/>
      <path d="M4096.72,1706.43h19.95l13.2,34.83c3.22,9.06,5.83,16.88,6.75,21.02,1.07-4.76,3.84-12.74,7.06-21.02l13.81-34.83h19.34l-31.61,75.8h-18.41l-30.08-75.8Z"/>
      <path d="M4179.9,1760.6c0-13.96,10.13-22.71,28.08-24.09l22.71-1.69v-1.69c0-10.28-6.14-14.43-15.65-14.43-11.05,0-17.18,4.6-17.18,12.58h-15.96c0-16.42,13.5-27.16,34.07-27.16s32.99,11.05,32.99,32.07v46.04h-16.42l-1.38-11.2c-3.22,7.83-13.5,13.2-25.32,13.2-16.11,0-25.93-9.36-25.93-23.63ZM4230.85,1751.54v-3.99l-15.81,1.23c-11.66,1.07-16.11,4.91-16.11,11.05,0,6.91,4.6,10.28,13.04,10.28,11.51,0,18.87-6.91,18.87-18.57Z"/>
      <path d="M4254.09,1782.23v-75.8h17.34l1.53,9.82c4.76-7.67,13.96-12.12,24.25-12.12,19.03,0,28.85,11.82,28.85,31.46v46.65h-18.72v-42.2c0-12.74-6.29-18.87-15.96-18.87-11.51,0-18.57,7.98-18.57,20.25v40.82h-18.72Z"/>
      <path d="M4345.7,1782.23v-60.15h-14.58v-15.65h14.58v-23.63h18.72v23.63h14.73v15.65h-14.73v60.15h-18.72Z"/>
    </g>
    <g>
      <polygon points="3758.73 1706.9 3758.73 1745.5 3720.13 1745.5 3720.13 1706.9 3681.53 1668.3 3681.53 1745.5 3720.13 1784.11 3758.73 1784.11 3797.34 1745.5 3797.34 1668.3 3758.73 1706.9"/>
      <rect x="3720.13" y="1668.3" width="38.6" height="38.6"/>
    </g>
  </g>
</svg>